<?xml version="1.0" encoding="UTF-8"?>
<svg id="Layer_1" xmlns="http://www.w3.org/2000/svg" version="1.1" viewBox="0 0 160 160">
  <!-- Generator: Adobe Illustrator 29.8.2, SVG Export Plug-In . SVG Version: 2.1.1 Build 3)  -->
  <defs>
    <style>
      .st0 {
        fill: #e00000;
      }
    </style>
  </defs>
  <rect x="225.78" y="63.77" width=".55" height="0"/>
  <g>
    <path class="st0" d="M80,30c-27.61,0-50,22.39-50,50s22.39,50,50,50,50-22.39,50-50-22.39-50-50-50ZM110.64,105.69c-1.49,1.8-3.15,3.46-4.95,4.95-6.11,5.14-13.78,8.48-22.19,9.2-1.15.11-2.32.16-3.5.16s-2.35-.05-3.5-.16c-8.41-.72-16.08-4.06-22.19-9.2-1.8-1.49-3.46-3.15-4.95-4.95-5.14-6.11-8.48-13.78-9.2-22.19-.11-1.15-.16-2.32-.16-3.5s.05-2.35.16-3.5c.72-8.41,4.06-16.08,9.2-22.19,1.49-1.8,3.15-3.46,4.95-4.95,6.11-5.14,13.78-8.48,22.19-9.2,1.15-.11,2.32-.16,3.5-.16s2.35.05,3.5.16c8.41.72,16.08,4.06,22.19,9.2,1.8,1.49,3.46,3.15,4.95,4.95,5.14,6.11,8.48,13.78,9.2,22.19.11,1.15.16,2.32.16,3.5s-.05,2.35-.16,3.5c-.72,8.41-4.06,16.08-9.2,22.19Z"/>
    <path class="st0" d="M80.05,85c1.34-.01,2.56-.56,3.45-1.42v41.42h-7v-41.42c.89.86,2.11,1.41,3.45,1.42l.05-.05.05.05Z"/>
    <path class="st0" d="M83.5,35v41.42c-.89-.86-2.11-1.41-3.45-1.42l-.05.05-.05-.05c-1.34.01-2.56.56-3.45,1.42v-41.42h7Z"/>
    <path class="st0" d="M76.42,76.5c-.86.89-1.41,2.11-1.42,3.45l.05.05-.05.05c.01,1.34.56,2.56,1.42,3.45h-41.42v-7h41.42Z"/>
    <path class="st0" d="M125,76.5v7h-41.42c.86-.89,1.41-2.11,1.42-3.45l-.05-.05.05-.05c-.01-1.34-.56-2.56-1.42-3.45h41.42Z"/>
    <path class="st0" d="M79.95,75c-1.34.01-2.56.56-3.45,1.42v.08h-.08c-.86.89-1.41,2.11-1.42,3.45l-3.45-3.45-4.34-4.34-17.85-17.85-3.65-3.65,4.95-4.95,29.29,29.29Z"/>
    <path class="st0" d="M114.29,109.34l-4.95,4.95-3.65-3.65-17.85-17.85-4.34-4.34-3.45-3.45c1.34-.01,2.56-.56,3.45-1.42v-.08h.08c.86-.89,1.41-2.11,1.42-3.45l29.29,29.29Z"/>
    <path class="st0" d="M76.5,83.58c.89.86,2.11,1.41,3.45,1.42l-3.45,3.45-4.34,4.34-17.85,17.85-3.65,3.65-4.95-4.95,29.29-29.29c.01,1.34.56,2.56,1.42,3.45h.08v.08Z"/>
    <path class="st0" d="M114.29,50.66l-3.65,3.65-17.85,17.85-4.34,4.34-3.45,3.45c-.01-1.34-.56-2.56-1.42-3.45h-.08v-.08c-.89-.86-2.11-1.41-3.45-1.42l29.29-29.29,4.95,4.95Z"/>
    <path class="st0" d="M92.16,77.08c-.31-1.3-.83-2.52-1.5-3.62-1.03-1.68-2.45-3.09-4.12-4.13-1.1-.67-2.32-1.19-3.62-1.5-.93-.22-1.91-.34-2.92-.34s-1.98.12-2.92.34c-1.3.31-2.52.82-3.62,1.5-1.67,1.03-3.09,2.45-4.12,4.13-.67,1.1-1.19,2.32-1.5,3.62-.22.93-.34,1.91-.34,2.92s.12,1.98.34,2.92c.31,1.3.83,2.52,1.5,3.62,1.03,1.68,2.45,3.09,4.12,4.13,1.1.67,2.32,1.19,3.62,1.5.93.23,1.91.34,2.92.34s1.98-.12,2.92-.34c1.3-.31,2.52-.82,3.62-1.5,1.67-1.03,3.09-2.45,4.12-4.13.67-1.1,1.19-2.32,1.5-3.62.22-.93.34-1.91.34-2.92s-.12-1.98-.34-2.92ZM80,84.13l-.04.04c-1.12,0-2.13-.47-2.88-1.18v-.07h-.07c-.72-.74-1.17-1.76-1.18-2.88l.04-.04-.04-.04c0-1.12.47-2.13,1.18-2.88h.07v-.07c.74-.72,1.76-1.17,2.88-1.18l.04.04.04-.04c1.12,0,2.13.47,2.88,1.18v.07h.07c.72.74,1.17,1.76,1.18,2.88l-.04.04.04.04c0,1.12-.47,2.13-1.18,2.88h-.07v.07c-.74.72-1.76,1.18-2.88,1.18l-.04-.04Z"/>
    <path class="st0" d="M84.95,80l.05.05v-.1l-.05.05ZM83.5,76.5h.08s-.06-.05-.08-.08v.08ZM83.5,83.5v.08s.05-.06.08-.08h-.08ZM80,84.95l-.05.05h.1l-.05-.05ZM76.42,83.5s.06.05.08.08v-.08h-.08ZM75,79.95v.1l.05-.05-.05-.05ZM76.42,76.5h.08v-.08s-.05.06-.08.08ZM79.95,75l.05.05.05-.05h-.1Z"/>
    <path class="st0" d="M128.46,98.54v29.92h-29.92c13.87-5.04,24.88-16.05,29.92-29.92Z"/>
  </g>
</svg>